<?xml version="1.0" standalone="no"?>
<!DOCTYPE svg PUBLIC "-//W3C//DTD SVG 20010904//EN"
 "http://www.w3.org/TR/2001/REC-SVG-20010904/DTD/svg10.dtd">
<svg version="1.0" xmlns="http://www.w3.org/2000/svg"
 width="512.000000pt" height="512.000000pt" viewBox="0 0 512.000000 512.000000"
 preserveAspectRatio="xMidYMid meet">
<metadata>
Created by potrace 1.14, written by Peter Selinger 2001-2017
</metadata>
<g transform="translate(0.000000,512.000000) scale(0.100000,-0.100000)"
fill="#000000" stroke="none">
<path d="M2047 4850 c-92 -61 -172 -110 -177 -110 -4 0 -10 -3 -12 -7 -1 -5
-41 -33 -88 -63 -47 -30 -86 -58 -88 -62 -2 -5 -8 -8 -12 -8 -5 0 -138 -84
-297 -188 -488 -317 -524 -341 -656 -426 -70 -45 -134 -91 -142 -102 -12 -16
-14 -117 -15 -681 0 -637 -1 -662 -19 -668 -25 -8 -98 -80 -118 -119 -27 -49
-23 -152 7 -202 26 -43 85 -101 113 -110 15 -5 17 -19 17 -103 0 -98 0 -99
-28 -110 -60 -26 -127 -107 -141 -172 -5 -24 -13 -80 -16 -124 -4 -44 -8 -91
-10 -105 -2 -14 -7 -52 -10 -85 -5 -63 -10 -106 -21 -215 -4 -36 -8 -94 -8
-128 -2 -104 -8 -102 314 -102 l267 0 27 25 c26 24 27 28 21 103 -3 42 -8 93
-10 112 -2 19 -7 67 -10 105 -4 39 -8 81 -10 95 -2 14 -7 54 -10 90 -16 193
-23 236 -47 288 -22 46 -89 109 -125 118 -22 6 -23 11 -23 104 0 86 2 99 18
104 27 9 97 78 118 117 24 44 24 151 2 195 -21 38 -93 111 -119 119 -18 6 -19
23 -19 601 0 567 1 594 18 585 16 -8 151 -58 177 -65 6 -2 21 -7 35 -13 14 -5
66 -24 117 -42 l92 -33 57 -143 57 -143 -20 -28 c-84 -122 -174 -387 -201
-589 -15 -111 -7 -356 16 -467 32 -154 105 -358 162 -448 5 -8 22 -37 38 -65
35 -59 112 -164 162 -219 30 -33 60 -63 144 -141 46 -44 151 -115 163 -111 8
3 11 1 8 -4 -13 -20 168 -115 317 -165 355 -119 730 -109 1062 27 124 51 316
160 366 208 9 8 40 35 70 59 206 172 386 452 458 711 46 165 62 285 58 455 -6
309 -87 564 -261 825 -70 104 -89 127 -170 210 -33 34 -56 67 -59 85 -2 17
-10 65 -16 108 -13 88 -14 85 59 123 20 10 64 36 99 56 34 21 64 38 67 38 2 0
38 20 78 45 41 25 77 45 80 45 10 0 102 63 115 78 28 36 4 101 -46 121 -15 6
-243 99 -507 207 -264 107 -562 229 -662 270 -100 40 -275 112 -389 159 -113
47 -216 85 -228 85 -11 0 -97 -50 -189 -110z"./>
<path d="M3837 3677 l-55 -52 40 -45 c192 -212 349 -537 394 -816 3 -21 8 -50
10 -64 3 -14 6 -97 9 -185 5 -231 -17 -385 -88 -596 -185 -551 -650 -963
-1227 -1087 -131 -28 -203 -35 -360 -36 -171 0 -274 13 -460 58 -108 27 -315
121 -440 202 -93 59 -212 151 -238 183 -12 14 -19 9 -69 -44 l-56 -60 59 -53
c133 -120 390 -270 584 -341 80 -29 253 -74 330 -85 42 -7 150 -18 182 -20 23
-1 23 -2 26 -158 l3 -158 -321 0 -320 0 0 -80 0 -80 720 0 720 0 0 80 0 80
-320 0 -321 0 3 158 c3 149 4 157 23 158 41 2 151 14 175 19 14 3 41 8 60 11
193 30 466 142 658 268 168 111 351 279 452 415 14 19 31 40 38 47 6 7 12 17
12 22 0 6 4 12 8 14 13 5 88 130 140 235 70 139 141 345 157 458 3 22 8 46 11
54 18 54 25 378 11 506 -32 286 -153 603 -326 850 -48 69 -154 195 -164 195
-2 0 -29 -24 -60 -53z"./>
</g>
</svg>
